<svg width="28" height="33" viewBox="0 0 28 33" fill="none" xmlns="http://www.w3.org/2000/svg">
<path d="M27.5 18C27.5 26.0412 21.4239 32.5 14 32.5C6.57609 32.5 0.5 26.0412 0.5 18C0.5 9.95882 6.57609 3.5 14 3.5C21.4239 3.5 27.5 9.95882 27.5 18Z" fill="#4E5C69" stroke="#4E5C69"/>
<path d="M14.152 26.168C13.048 26.168 12.056 25.976 11.176 25.592C10.312 25.192 9.632 24.648 9.136 23.96C8.64 23.256 8.384 22.448 8.368 21.536H10.696C10.776 22.32 11.096 22.984 11.656 23.528C12.232 24.056 13.064 24.32 14.152 24.32C15.192 24.32 16.008 24.064 16.6 23.552C17.208 23.024 17.512 22.352 17.512 21.536C17.512 20.896 17.336 20.376 16.984 19.976C16.632 19.576 16.192 19.272 15.664 19.064C15.136 18.856 14.424 18.632 13.528 18.392C12.424 18.104 11.536 17.816 10.864 17.528C10.208 17.24 9.64 16.792 9.16 16.184C8.696 15.56 8.464 14.728 8.464 13.688C8.464 12.776 8.696 11.968 9.16 11.264C9.624 10.56 10.272 10.016 11.104 9.632C11.952 9.248 12.92 9.056 14.008 9.056C15.576 9.056 16.856 9.448 17.848 10.232C18.856 11.016 19.424 12.056 19.552 13.352H17.152C17.072 12.712 16.736 12.152 16.144 11.672C15.552 11.176 14.768 10.928 13.792 10.928C12.88 10.928 12.136 11.168 11.56 11.648C10.984 12.112 10.696 12.768 10.696 13.616C10.696 14.224 10.864 14.72 11.2 15.104C11.552 15.488 11.976 15.784 12.472 15.992C12.984 16.184 13.696 16.408 14.608 16.664C15.712 16.968 16.6 17.272 17.272 17.576C17.944 17.864 18.52 18.32 19 18.944C19.48 19.552 19.72 20.384 19.72 21.44C19.72 22.256 19.504 23.024 19.072 23.744C18.64 24.464 18 25.048 17.152 25.496C16.304 25.944 15.304 26.168 14.152 26.168Z" fill="#F8C308" fill-opacity="0.96"/>
</svg>
