<svg width="110" height="37" viewBox="0 0 110 37" fill="none" xmlns="http://www.w3.org/2000/svg">
<g filter="url(#filter0_d)">
<path d="M39.5839 12.608C41.1839 12.608 42.4799 13.096 43.4719 14.072C44.4639 15.032 44.9599 16.424 44.9599 18.248V26H42.7999V18.56C42.7999 17.248 42.4719 16.248 41.8159 15.56C41.1599 14.856 40.2639 14.504 39.1279 14.504C37.9759 14.504 37.0559 14.864 36.3679 15.584C35.6959 16.304 35.3599 17.352 35.3599 18.728V26H33.1759V12.848H35.3599V14.72C35.7919 14.048 36.3759 13.528 37.1119 13.16C37.8639 12.792 38.6879 12.608 39.5839 12.608ZM60.1914 12.848V26H58.0074V24.056C57.5914 24.728 57.0074 25.256 56.2554 25.64C55.5194 26.008 54.7034 26.192 53.8074 26.192C52.7834 26.192 51.8634 25.984 51.0474 25.568C50.2314 25.136 49.5834 24.496 49.1034 23.648C48.6394 22.8 48.4074 21.768 48.4074 20.552V12.848H50.5674V20.264C50.5674 21.56 50.8954 22.56 51.5514 23.264C52.2074 23.952 53.1034 24.296 54.2394 24.296C55.4074 24.296 56.3274 23.936 56.9994 23.216C57.6714 22.496 58.0074 21.448 58.0074 20.072V12.848H60.1914ZM66.063 15.296C66.511 14.512 67.167 13.872 68.031 13.376C68.895 12.88 69.879 12.632 70.983 12.632C72.167 12.632 73.231 12.912 74.175 13.472C75.119 14.032 75.863 14.824 76.407 15.848C76.951 16.856 77.223 18.032 77.223 19.376C77.223 20.704 76.951 21.888 76.407 22.928C75.863 23.968 75.111 24.776 74.151 25.352C73.207 25.928 72.151 26.216 70.983 26.216C69.847 26.216 68.847 25.968 67.983 25.472C67.135 24.976 66.495 24.344 66.063 23.576V26H63.879V8.24H66.063V15.296ZM74.991 19.376C74.991 18.384 74.791 17.52 74.391 16.784C73.991 16.048 73.447 15.488 72.759 15.104C72.087 14.72 71.343 14.528 70.527 14.528C69.727 14.528 68.983 14.728 68.295 15.128C67.623 15.512 67.079 16.08 66.663 16.832C66.263 17.568 66.063 18.424 66.063 19.4C66.063 20.392 66.263 21.264 66.663 22.016C67.079 22.752 67.623 23.32 68.295 23.72C68.983 24.104 69.727 24.296 70.527 24.296C71.343 24.296 72.087 24.104 72.759 23.72C73.447 23.32 73.991 22.752 74.391 22.016C74.791 21.264 74.991 20.384 74.991 19.376ZM92.0978 18.92C92.0978 19.336 92.0738 19.776 92.0258 20.24H81.5138C81.5938 21.536 82.0338 22.552 82.8338 23.288C83.6498 24.008 84.6338 24.368 85.7858 24.368C86.7298 24.368 87.5138 24.152 88.1378 23.72C88.7778 23.272 89.2258 22.68 89.4818 21.944H91.8338C91.4818 23.208 90.7778 24.24 89.7218 25.04C88.6658 25.824 87.3538 26.216 85.7858 26.216C84.5378 26.216 83.4178 25.936 82.4258 25.376C81.4498 24.816 80.6818 24.024 80.1218 23C79.5618 21.96 79.2818 20.76 79.2818 19.4C79.2818 18.04 79.5538 16.848 80.0978 15.824C80.6418 14.8 81.4018 14.016 82.3778 13.472C83.3698 12.912 84.5058 12.632 85.7858 12.632C87.0338 12.632 88.1378 12.904 89.0978 13.448C90.0578 13.992 90.7938 14.744 91.3058 15.704C91.8338 16.648 92.0978 17.72 92.0978 18.92ZM89.8418 18.464C89.8418 17.632 89.6578 16.92 89.2898 16.328C88.9218 15.72 88.4178 15.264 87.7778 14.96C87.1538 14.64 86.4578 14.48 85.6898 14.48C84.5858 14.48 83.6418 14.832 82.8578 15.536C82.0898 16.24 81.6498 17.216 81.5378 18.464H89.8418ZM99.6366 26.216C98.6286 26.216 97.7246 26.048 96.9246 25.712C96.1246 25.36 95.4926 24.88 95.0286 24.272C94.5646 23.648 94.3086 22.936 94.2606 22.136H96.5166C96.5806 22.792 96.8846 23.328 97.4286 23.744C97.9886 24.16 98.7166 24.368 99.6126 24.368C100.445 24.368 101.101 24.184 101.581 23.816C102.061 23.448 102.301 22.984 102.301 22.424C102.301 21.848 102.045 21.424 101.533 21.152C101.021 20.864 100.229 20.584 99.1566 20.312C98.1806 20.056 97.3806 19.8 96.7566 19.544C96.1486 19.272 95.6206 18.88 95.1726 18.368C94.7406 17.84 94.5246 17.152 94.5246 16.304C94.5246 15.632 94.7246 15.016 95.1246 14.456C95.5246 13.896 96.0926 13.456 96.8286 13.136C97.5646 12.8 98.4046 12.632 99.3486 12.632C100.805 12.632 101.981 13 102.877 13.736C103.773 14.472 104.253 15.48 104.317 16.76H102.133C102.085 16.072 101.805 15.52 101.293 15.104C100.797 14.688 100.125 14.48 99.2766 14.48C98.4926 14.48 97.8686 14.648 97.4046 14.984C96.9406 15.32 96.7086 15.76 96.7086 16.304C96.7086 16.736 96.8446 17.096 97.1166 17.384C97.4046 17.656 97.7566 17.88 98.1726 18.056C98.6046 18.216 99.1966 18.4 99.9486 18.608C100.893 18.864 101.661 19.12 102.253 19.376C102.845 19.616 103.349 19.984 103.765 20.48C104.197 20.976 104.421 21.624 104.437 22.424C104.437 23.144 104.237 23.792 103.837 24.368C103.437 24.944 102.869 25.4 102.133 25.736C101.413 26.056 100.581 26.216 99.6366 26.216Z" fill="#063251"/>
</g>
<path d="M27.5 19C27.5 27.0412 21.4239 33.5 14 33.5C6.57609 33.5 0.5 27.0412 0.5 19C0.5 10.9588 6.57609 4.5 14 4.5C21.4239 4.5 27.5 10.9588 27.5 19Z" fill="#4E5C69" stroke="#4E5C69"/>
<path d="M14.152 27.168C13.048 27.168 12.056 26.976 11.176 26.592C10.312 26.192 9.632 25.648 9.136 24.96C8.64 24.256 8.384 23.448 8.368 22.536H10.696C10.776 23.32 11.096 23.984 11.656 24.528C12.232 25.056 13.064 25.32 14.152 25.32C15.192 25.32 16.008 25.064 16.6 24.552C17.208 24.024 17.512 23.352 17.512 22.536C17.512 21.896 17.336 21.376 16.984 20.976C16.632 20.576 16.192 20.272 15.664 20.064C15.136 19.856 14.424 19.632 13.528 19.392C12.424 19.104 11.536 18.816 10.864 18.528C10.208 18.24 9.64 17.792 9.16 17.184C8.696 16.56 8.464 15.728 8.464 14.688C8.464 13.776 8.696 12.968 9.16 12.264C9.624 11.56 10.272 11.016 11.104 10.632C11.952 10.248 12.92 10.056 14.008 10.056C15.576 10.056 16.856 10.448 17.848 11.232C18.856 12.016 19.424 13.056 19.552 14.352H17.152C17.072 13.712 16.736 13.152 16.144 12.672C15.552 12.176 14.768 11.928 13.792 11.928C12.88 11.928 12.136 12.168 11.56 12.648C10.984 13.112 10.696 13.768 10.696 14.616C10.696 15.224 10.864 15.72 11.2 16.104C11.552 16.488 11.976 16.784 12.472 16.992C12.984 17.184 13.696 17.408 14.608 17.664C15.712 17.968 16.6 18.272 17.272 18.576C17.944 18.864 18.52 19.32 19 19.944C19.48 20.552 19.72 21.384 19.72 22.44C19.72 23.256 19.504 24.024 19.072 24.744C18.64 25.464 18 26.048 17.152 26.496C16.304 26.944 15.304 27.168 14.152 27.168Z" fill="#F8C308" fill-opacity="0.96"/>
<defs>
<filter id="filter0_d" x="29.1759" y="8.24023" width="79.2607" height="25.976" filterUnits="userSpaceOnUse" color-interpolation-filters="sRGB">
<feFlood flood-opacity="0" result="BackgroundImageFix"/>
<feColorMatrix in="SourceAlpha" type="matrix" values="0 0 0 0 0 0 0 0 0 0 0 0 0 0 0 0 0 0 127 0"/>
<feOffset dy="4"/>
<feGaussianBlur stdDeviation="2"/>
<feColorMatrix type="matrix" values="0 0 0 0 0 0 0 0 0 0 0 0 0 0 0 0 0 0 0.25 0"/>
<feBlend mode="normal" in2="BackgroundImageFix" result="effect1_dropShadow"/>
<feBlend mode="normal" in="SourceGraphic" in2="effect1_dropShadow" result="shape"/>
</filter>
</defs>
</svg>
